# xmcd CD database file generated by freedbAccess_ocx
#
# Track frame offsets:
#       150
#       25189
#       53510
#       74738
#       92232
#       114920
#       129195
#
# Disc length: 1856 seconds
#
# Revision: 0
# Processed by: cddbd v1.5.1PL0 Copyright (c) Steve Scherf et al.
# Submitted via: CDnGo 2.00
#
DISCID=55073e07
DTITLE=Goldentone - Demo CD number three
DYEAR=2000
DGENRE=Alt. Country
TTITLE0=Inner Dark
TTITLE1=Hands of Mercy
TTITLE2=Promises
TTITLE3=Defenceless
TTITLE4=Regrets
TTITLE5=Esplanade
TTITLE6=Rock and Roll
EXTD=
EXTT0=
EXTT1=
EXTT2=
EXTT3=
EXTT4=
EXTT5=
EXTT6=
PLAYORDER=
